STARTFONT 2.1
FONT -sun-Chelmsford Sans Serif-Normal-R-Normal-SansSerif-30-180-120-120-P-150-WinRoman-0
SIZE 18 120 120
FONTBOUNDINGBOX 30 36 0 -7
COMMENT "Generated by fontforge, http://fontforge.sourceforge.net"
COMMENT "(c)Copyright Sun Microsystems Inc"
STARTPROPERTIES 34
FOUNDRY "sun"
FAMILY_NAME "Chelmsford Sans Serif"
WEIGHT_NAME "Normal"
SLANT "R"
SETWIDTH_NAME "Normal"
ADD_STYLE_NAME "SansSerif"
PIXEL_SIZE 30
POINT_SIZE 180
RESOLUTION_X 120
RESOLUTION_Y 120
SPACING "P"
AVERAGE_WIDTH 150
CHARSET_REGISTRY "WinRoman"
CHARSET_ENCODING "0"
FONTNAME_REGISTRY ""
CHARSET_COLLECTIONS "WinRoman"
FONT_NAME "ChelmsfordSansSerif"
FACE_NAME "Chelmsford Sans Serif"
COPYRIGHT "(c)Copyright Sun Microsystems Inc"
FONT_VERSION "001.000"
FONT_ASCENT 24
FONT_DESCENT 6
UNDERLINE_POSITION -3
UNDERLINE_THICKNESS 2
X_HEIGHT 14
CAP_HEIGHT 20
RAW_ASCENT 800
RAW_DESCENT 200
NORM_SPACE 8
RELATIVE_WEIGHT 40
RELATIVE_SETWIDTH 50
FIGURE_WIDTH 17
AVG_LOWERCASE_WIDTH 146
AVG_UPPERCASE_WIDTH 191
ENDPROPERTIES
CHARS 224
STARTCHAR space
ENCODING 32
SWIDTH 275 0
DWIDTH 8 0
BBX 1 1 7 -7
BITMAP
00
ENDCHAR
STARTCHAR exclam
ENCODING 33
SWIDTH 275 0
DWIDTH 8 0
BBX 3 21 2 0
BITMAP
E0
E0
E0
E0
E0
E0
E0
E0
E0
E0
E0
E0
E0
E0
E0
E0
00
00
E0
E0
E0
ENDCHAR
STARTCHAR quotedbl
ENCODING 34
SWIDTH 350 0
DWIDTH 11 0
BBX 9 8 1 13
BITMAP
E380
E380
E380
E380
E380
E380
E380
E380
ENDCHAR
STARTCHAR numbersign
ENCODING 35
SWIDTH 550 0
DWIDTH 17 0
BBX 15 21 1 0
BITMAP
0618
0618
0618
0C30
0C30
0C30
7FFE
7FFE
0C30
0C30
1860
1860
FFFC
FFFC
1860
1860
1860
30C0
30C0
30C0
30C0
ENDCHAR
STARTCHAR dollar
ENCODING 36
SWIDTH 550 0
DWIDTH 17 0
BBX 15 27 1 -3
BITMAP
0300
0300
0300
0FE0
3FF8
7B78
733C
E31C
E31C
E300
F300
7F00
7FC0
1FF0
07F8
037C
031C
030E
E30E
E30E
F31C
7B7C
3FF8
0FE0
0300
0300
0300
ENDCHAR
STARTCHAR percent
ENCODING 37
SWIDTH 875 0
DWIDTH 27 0
BBX 23 22 2 -1
BITMAP
1E0060
7F8060
6180C0
C0C180
C0C180
C0C300
C0C700
618600
7F8C00
1E1C00
001800
0030F0
0073FC
00630C
00C606
01C606
018606
030606
07030C
0603FC
0C00F0
0C0000
ENDCHAR
STARTCHAR ampersand
ENCODING 38
SWIDTH 675 0
DWIDTH 20 0
BBX 18 21 1 0
BITMAP
078000
1FE000
1FE000
3CF000
387000
387000
1CE000
1FE000
0FC000
1F0000
3F8700
7BC700
71E700
E0FE00
E07E00
E03C00
703E00
787F00
3FF780
1FE3C0
0781C0
ENDCHAR
STARTCHAR quotesingle
ENCODING 39
SWIDTH 225 0
DWIDTH 6 0
BBX 2 8 2 13
BITMAP
C0
C0
C0
C0
C0
C0
C0
C0
ENDCHAR
STARTCHAR parenleft
ENCODING 40
SWIDTH 325 0
DWIDTH 10 0
BBX 7 28 3 -6
BITMAP
06
0C
0C
18
38
30
70
70
70
E0
E0
E0
E0
E0
E0
E0
E0
E0
E0
70
70
70
30
38
1C
0C
0C
06
ENDCHAR
STARTCHAR parenright
ENCODING 41
SWIDTH 325 0
DWIDTH 10 0
BBX 7 28 0 -6
BITMAP
C0
60
60
30
38
18
1C
1C
1C
0E
0E
0E
0E
0E
0E
0E
0E
0E
0E
1C
1C
1C
18
38
70
60
60
C0
ENDCHAR
STARTCHAR asterisk
ENCODING 42
SWIDTH 375 0
DWIDTH 12 0
BBX 12 11 0 10
BITMAP
0600
0600
0600
4620
FFF0
7FE0
0F00
1F80
39C0
70E0
2040
ENDCHAR
STARTCHAR plus
ENCODING 43
SWIDTH 575 0
DWIDTH 17 0
BBX 16 16 0 0
BITMAP
0180
0180
0180
0180
0180
0180
0180
FFFF
FFFF
0180
0180
0180
0180
0180
0180
0180
ENDCHAR
STARTCHAR comma
ENCODING 44
SWIDTH 275 0
DWIDTH 8 0
BBX 3 7 2 -4
BITMAP
E0
E0
E0
60
60
C0
80
ENDCHAR
STARTCHAR hyphen
ENCODING 45
SWIDTH 325 0
DWIDTH 10 0
BBX 8 2 1 6
BITMAP
FF
FF
ENDCHAR
STARTCHAR period
ENCODING 46
SWIDTH 275 0
DWIDTH 8 0
BBX 3 3 2 0
BITMAP
E0
E0
E0
ENDCHAR
STARTCHAR slash
ENCODING 47
SWIDTH 275 0
DWIDTH 8 0
BBX 8 24 0 -3
BITMAP
03
03
06
06
06
06
0C
0C
0C
0C
18
18
18
18
30
30
30
30
60
60
60
60
C0
C0
ENDCHAR
STARTCHAR zero
ENCODING 48
SWIDTH 550 0
DWIDTH 17 0
BBX 15 21 1 0
BITMAP
07C0
1FF0
3C78
783C
701C
701C
F01E
E00E
E00E
E00E
E00E
E00E
E00E
E00E
F01E
701C
701C
383C
3C78
1FF0
07C0
ENDCHAR
STARTCHAR one
ENCODING 49
SWIDTH 550 0
DWIDTH 17 0
BBX 8 21 4 0
BITMAP
07
07
07
1F
FF
FF
07
07
07
07
07
07
07
07
07
07
07
07
07
07
07
ENDCHAR
STARTCHAR two
ENCODING 50
SWIDTH 550 0
DWIDTH 17 0
BBX 15 21 1 0
BITMAP
07E0
1FF8
7C7C
701C
E00E
E00E
E00E
000E
001C
003C
0078
00F0
03E0
0780
1F00
3E00
7800
7000
E000
FFFE
FFFE
ENDCHAR
STARTCHAR three
ENCODING 51
SWIDTH 550 0
DWIDTH 17 0
BBX 15 21 1 0
BITMAP
07E0
1FF8
3C78
301C
701C
701C
001C
0038
0078
03F0
03F8
003C
001C
000E
000E
E00E
E01C
701C
3C78
3FF8
07C0
ENDCHAR
STARTCHAR four
ENCODING 52
SWIDTH 550 0
DWIDTH 17 0
BBX 15 21 1 0
BITMAP
00F0
01F0
03F0
03F0
0770
0770
0E70
0E70
1C70
1C70
3870
3870
7070
7070
FFFE
FFFE
0070
0070
0070
0070
0070
ENDCHAR
STARTCHAR five
ENCODING 53
SWIDTH 550 0
DWIDTH 17 0
BBX 15 21 1 0
BITMAP
1FFE
3FFE
3800
3800
7800
7000
7000
77C0
7FF8
7C78
701C
001C
000E
000E
000E
E00E
701C
701C
3C78
3FF8
07C0
ENDCHAR
STARTCHAR six
ENCODING 54
SWIDTH 550 0
DWIDTH 17 0
BBX 15 21 1 0
BITMAP
0FE0
1FF8
3C3C
380E
700E
7000
6000
E7E0
FFF8
FC3C
F01C
F01E
E00E
E00E
E00E
E00E
701E
701C
3C3C
1FF8
07E0
ENDCHAR
STARTCHAR seven
ENCODING 55
SWIDTH 550 0
DWIDTH 17 0
BBX 15 21 1 0
BITMAP
FFFE
FFFE
000E
001C
0038
0070
0070
00E0
01E0
01C0
03C0
0380
0780
0700
0F00
0E00
0E00
1E00
1C00
1C00
1C00
ENDCHAR
STARTCHAR eight
ENCODING 56
SWIDTH 550 0
DWIDTH 17 0
BBX 15 21 1 0
BITMAP
07C0
1FF0
3C78
3838
701C
701C
701C
3838
3EF8
0FE0
3FF8
7C7C
701C
E00E
E00E
E00E
E00E
701C
783C
3FF8
0FE0
ENDCHAR
STARTCHAR nine
ENCODING 57
SWIDTH 550 0
DWIDTH 17 0
BBX 16 21 1 0
BITMAP
0FE0
3FF8
783C
700E
F00E
E007
E007
E007
E007
F00F
700F
783F
3FFF
0FE7
0006
E00E
E00E
601C
783C
3FF8
0FE0
ENDCHAR
STARTCHAR colon
ENCODING 58
SWIDTH 275 0
DWIDTH 8 0
BBX 3 16 2 0
BITMAP
E0
E0
E0
00
00
00
00
00
00
00
00
00
00
E0
E0
E0
ENDCHAR
STARTCHAR semicolon
ENCODING 59
SWIDTH 275 0
DWIDTH 8 0
BBX 3 20 2 -4
BITMAP
E0
E0
E0
00
00
00
00
00
00
00
00
00
00
E0
E0
E0
60
60
C0
80
ENDCHAR
STARTCHAR less
ENCODING 60
SWIDTH 575 0
DWIDTH 17 0
BBX 14 15 1 0
BITMAP
000C
003C
00F8
03E0
0F80
3E00
F800
E000
F800
3E00
0F80
03E0
00F8
003C
000C
ENDCHAR
STARTCHAR equal
ENCODING 61
SWIDTH 575 0
DWIDTH 17 0
BBX 13 8 2 3
BITMAP
FFF8
FFF8
0000
0000
0000
0000
FFF8
FFF8
ENDCHAR
STARTCHAR greater
ENCODING 62
SWIDTH 575 0
DWIDTH 17 0
BBX 14 15 2 0
BITMAP
C000
F000
7C00
1F00
07C0
01F0
007C
001C
007C
01F0
07C0
1F00
7C00
F000
C000
ENDCHAR
STARTCHAR question
ENCODING 63
SWIDTH 550 0
DWIDTH 16 0
BBX 13 21 2 0
BITMAP
0F80
3FE0
78F0
7078
E038
E038
E038
0070
0070
00E0
01C0
0380
0380
0700
0700
0700
0000
0000
0700
0700
0700
ENDCHAR
STARTCHAR at
ENCODING 64
SWIDTH 1000 0
DWIDTH 30 0
BBX 26 27 2 -4
BITMAP
001FF000
007FFC00
00E03E00
03800F00
07000700
0C000380
18000180
38000180
300E01C0
703F60C0
6073E0C0
60E0E0C0
E0C0C0C0
C1C0C0C0
C180C1C0
C180C180
C1818380
E1C18300
60C7CE00
60FEFC00
30387000
38000000
1C000400
0E001E00
07C0F800
01FFE000
007F0000
ENDCHAR
STARTCHAR A
ENCODING 65
SWIDTH 675 0
DWIDTH 21 0
BBX 20 21 0 0
BITMAP
00F000
00F000
01F800
01F800
039C00
039C00
070E00
070E00
070E00
0E0700
0E0700
1C0380
1FFF80
1FFF80
3FFFC0
3801C0
7000E0
7000E0
7000E0
E00070
E00070
ENDCHAR
STARTCHAR B
ENCODING 66
SWIDTH 675 0
DWIDTH 20 0
BBX 16 21 2 0
BITMAP
FFE0
FFF8
FFFC
E01C
E00E
E00E
E00E
E01C
FFFC
FFF8
FFFC
E01E
E00E
E007
E007
E007
E007
E00E
FFFE
FFFC
FFF0
ENDCHAR
STARTCHAR C
ENCODING 67
SWIDTH 725 0
DWIDTH 21 0
BBX 18 21 1 0
BITMAP
01F000
07FC00
1FFF00
3E0F80
380380
7001C0
7001C0
E00000
E00000
E00000
E00000
E00000
E00000
E00000
7001C0
7001C0
380380
1E0F80
0FFF00
07FC00
01F000
ENDCHAR
STARTCHAR D
ENCODING 68
SWIDTH 725 0
DWIDTH 21 0
BBX 17 21 2 0
BITMAP
FFC000
FFF800
FFFC00
E03E00
E00F00
E00700
E00780
E00380
E00380
E00380
E00380
E00380
E00380
E00380
E00780
E00700
E00F00
E03E00
FFFC00
FFF800
FFC000
ENDCHAR
STARTCHAR E
ENCODING 69
SWIDTH 675 0
DWIDTH 20 0
BBX 16 21 2 0
BITMAP
FFFF
FFFF
FFFF
E000
E000
E000
E000
E000
E000
FFFE
FFFE
FFFE
E000
E000
E000
E000
E000
E000
FFFF
FFFF
FFFF
ENDCHAR
STARTCHAR F
ENCODING 70
SWIDTH 675 0
DWIDTH 20 0
BBX 16 21 2 0
BITMAP
FFFF
FFFF
FFFF
E000
E000
E000
E000
E000
E000
FFFE
FFFE
FFFE
E000
E000
E000
E000
E000
E000
E000
E000
E000
ENDCHAR
STARTCHAR G
ENCODING 71
SWIDTH 725 0
DWIDTH 23 0
BBX 19 22 2 0
BITMAP
01F000
07FC00
1FFF00
3E0F80
380380
7001C0
7001C0
E00000
E00000
E00000
E03FE0
E03FE0
E03FE0
E000E0
E000E0
7001E0
7001E0
3803E0
3E0FE0
1FFEE0
07FCE0
01F0E0
ENDCHAR
STARTCHAR H
ENCODING 72
SWIDTH 725 0
DWIDTH 21 0
BBX 17 21 2 0
BITMAP
E00380
E00380
E00380
E00380
E00380
E00380
E00380
E00380
E00380
FFFF80
FFFF80
FFFF80
E00380
E00380
E00380
E00380
E00380
E00380
E00380
E00380
E00380
ENDCHAR
STARTCHAR I
ENCODING 73
SWIDTH 250 0
DWIDTH 8 0
BBX 3 21 3 0
BITMAP
E0
E0
E0
E0
E0
E0
E0
E0
E0
E0
E0
E0
E0
E0
E0
E0
E0
E0
E0
E0
E0
ENDCHAR
STARTCHAR J
ENCODING 74
SWIDTH 500 0
DWIDTH 15 0
BBX 12 21 2 0
BITMAP
0070
0070
0070
0070
0070
0070
0070
0070
0070
0070
0070
0070
0070
E070
E070
E070
E070
70E0
7FE0
3FC0
0F00
ENDCHAR
STARTCHAR K
ENCODING 75
SWIDTH 650 0
DWIDTH 20 0
BBX 17 21 2 0
BITMAP
E00F00
E01E00
E03C00
E07800
E0F000
E1E000
E3C000
E78000
EF0000
FF0000
FF8000
FBC000
F1E000
E0E000
E0F000
E07800
E03C00
E01C00
E01E00
E00F00
E00780
ENDCHAR
STARTCHAR L
ENCODING 76
SWIDTH 550 0
DWIDTH 17 0
BBX 14 21 1 0
BITMAP
E000
E000
E000
E000
E000
E000
E000
E000
E000
E000
E000
E000
E000
E000
E000
E000
E000
E000
FFFC
FFFC
FFFC
ENDCHAR
STARTCHAR M
ENCODING 77
SWIDTH 825 0
DWIDTH 25 0
BBX 20 21 2 0
BITMAP
F801F0
F801F0
FC03F0
FC03F0
FC03F0
FE0770
EE0770
EE0770
EE0670
E70E70
E70E70
E70C70
E39C70
E39C70
E39870
E1F870
E1F870
E0F070
E0F070
E06070
E06070
ENDCHAR
STARTCHAR N
ENCODING 78
SWIDTH 725 0
DWIDTH 22 0
BBX 17 21 2 0
BITMAP
F00380
F00380
F80380
FC0380
FC0380
EE0380
EF0380
E70380
E38380
E3C380
E1C380
E0E380
E0E380
E07380
E07B80
E03B80
E01F80
E01F80
E00F80
E00780
E00780
ENDCHAR
STARTCHAR O
ENCODING 79
SWIDTH 725 0
DWIDTH 22 0
BBX 19 22 1 0
BITMAP
01F000
07FC00
1FFF00
3E0F80
380380
7001C0
7001C0
E000E0
E000E0
E000E0
E000E0
E000E0
E000E0
E000E0
E000E0
7001C0
7001C0
380380
3E0F80
1FFF00
07FC00
01F000
ENDCHAR
STARTCHAR P
ENCODING 80
SWIDTH 675 0
DWIDTH 20 0
BBX 16 21 2 0
BITMAP
FFF0
FFFC
FFFE
E00E
E007
E007
E007
E007
E00E
FFFE
FFFC
FFF0
E000
E000
E000
E000
E000
E000
E000
E000
E000
ENDCHAR
STARTCHAR Q
ENCODING 81
SWIDTH 725 0
DWIDTH 22 0
BBX 20 23 1 -1
BITMAP
01F000
07FC00
1FFF00
3E0F80
380380
7001C0
7001C0
E000E0
E000E0
E000E0
E000E0
E000E0
E000E0
E000E0
E000E0
7009C0
701DC0
380F80
3E0F80
1FFFC0
07FCE0
01F070
000020
ENDCHAR
STARTCHAR R
ENCODING 82
SWIDTH 725 0
DWIDTH 20 0
BBX 16 21 2 0
BITMAP
FFF0
FFFC
FFFE
E00E
E007
E007
E007
E007
E00E
FFFE
FFFC
FFFC
E01C
E00E
E00E
E007
E007
E007
E007
E007
E007
ENDCHAR
STARTCHAR S
ENCODING 83
SWIDTH 675 0
DWIDTH 20 0
BBX 17 22 1 0
BITMAP
07C000
1FF800
7FFC00
783E00
F00E00
E00700
E00700
F00000
7E0000
7FC000
1FF000
03FC00
007E00
000F00
000700
000380
E00380
F00780
7C0F00
3FFF00
1FFC00
07F000
ENDCHAR
STARTCHAR T
ENCODING 84
SWIDTH 600 0
DWIDTH 18 0
BBX 15 21 1 0
BITMAP
FFFE
FFFE
FFFE
0380
0380
0380
0380
0380
0380
0380
0380
0380
0380
0380
0380
0380
0380
0380
0380
0380
0380
ENDCHAR
STARTCHAR U
ENCODING 85
SWIDTH 725 0
DWIDTH 22 0
BBX 17 21 2 0
BITMAP
E00380
E00380
E00380
E00380
E00380
E00380
E00380
E00380
E00380
E00380
E00380
E00380
E00380
E00380
E00380
F00780
700700
7C1F00
3FFE00
1FFC00
03E000
ENDCHAR
STARTCHAR V
ENCODING 86
SWIDTH 675 0
DWIDTH 21 0
BBX 20 21 0 0
BITMAP
E00070
E00070
7000E0
7000E0
7000E0
3801C0
3801C0
1C0380
1C0380
1C0380
0E0700
0E0700
070E00
070E00
070E00
039C00
039C00
01F800
01F800
00F000
00F000
ENDCHAR
STARTCHAR W
ENCODING 87
SWIDTH 950 0
DWIDTH 29 0
BBX 28 21 0 0
BITMAP
E00F0070
E00F0070
701F80E0
701F80E0
701F80E0
3839C1C0
3839C1C0
3839C1C0
3839C1C0
1C70E380
1C70E380
1C70E380
1C70E380
0EE07700
0EE07700
0EE07700
07C03E00
07C03E00
07C03E00
03801C00
03801C00
ENDCHAR
STARTCHAR X
ENCODING 88
SWIDTH 675 0
DWIDTH 21 0
BBX 20 21 0 0
BITMAP
7000E0
7801E0
3C03C0
1E0780
0E0700
070E00
079E00
03FC00
01F800
00F000
00F000
01F800
01F800
039C00
070E00
0F0F00
1E0780
1C0380
3801C0
7801E0
F000F0
ENDCHAR
STARTCHAR Y
ENCODING 89
SWIDTH 650 0
DWIDTH 20 0
BBX 19 21 0 0
BITMAP
E000E0
F001E0
7803C0
380380
3C0780
1E0F00
0E0E00
0F1E00
07BC00
03B800
03F800
01F000
00E000
00E000
00E000
00E000
00E000
00E000
00E000
00E000
00E000
ENDCHAR
STARTCHAR Z
ENCODING 90
SWIDTH 600 0
DWIDTH 18 0
BBX 17 21 0 0
BITMAP
FFFF80
FFFF80
FFFF80
000780
000F00
001E00
003C00
007800
00F000
00E000
01C000
03C000
078000
0F0000
1E0000
3C0000
380000
700000
FFFF80
FFFF80
FFFF80
ENDCHAR
STARTCHAR bracketleft
ENCODING 91
SWIDTH 275 0
DWIDTH 8 0
BBX 6 27 2 -6
BITMAP
FC
FC
E0
E0
E0
E0
E0
E0
E0
E0
E0
E0
E0
E0
E0
E0
E0
E0
E0
E0
E0
E0
E0
E0
E0
FC
FC
ENDCHAR
STARTCHAR backslash
ENCODING 92
SWIDTH 275 0
DWIDTH 8 0
BBX 8 24 0 -3
BITMAP
C0
C0
60
60
60
60
30
30
30
30
18
18
18
18
0C
0C
0C
0C
06
06
06
06
03
03
ENDCHAR
STARTCHAR bracketright
ENCODING 93
SWIDTH 275 0
DWIDTH 8 0
BBX 6 27 0 -6
BITMAP
FC
FC
1C
1C
1C
1C
1C
1C
1C
1C
1C
1C
1C
1C
1C
1C
1C
1C
1C
1C
1C
1C
1C
1C
1C
FC
FC
ENDCHAR
STARTCHAR asciicircum
ENCODING 94
SWIDTH 325 0
DWIDTH 10 0
BBX 10 5 0 17
BITMAP
0C00
1E00
3F00
7380
E1C0
ENDCHAR
STARTCHAR underscore
ENCODING 95
SWIDTH 550 0
DWIDTH 17 0
BBX 17 2 0 -4
BITMAP
FFFF80
FFFF80
ENDCHAR
STARTCHAR grave
ENCODING 96
SWIDTH 325 0
DWIDTH 10 0
BBX 6 5 2 16
BITMAP
E0
70
38
18
0C
ENDCHAR
STARTCHAR a
ENCODING 97
SWIDTH 550 0
DWIDTH 16 0
BBX 14 16 1 0
BITMAP
0FC0
3FF0
7878
7038
0038
0078
0FF8
3FB8
7838
E038
E038
E038
E078
71F8
7FBC
1E1C
ENDCHAR
STARTCHAR b
ENCODING 98
SWIDTH 550 0
DWIDTH 17 0
BBX 15 21 1 0
BITMAP
E000
E000
E000
E000
E000
E000
E7C0
FFF0
F878
F01C
E01C
E00E
E00E
E00E
E00E
E00E
E01C
F01C
F878
FFF0
E7C0
ENDCHAR
STARTCHAR c
ENCODING 99
SWIDTH 525 0
DWIDTH 15 0
BBX 13 15 1 0
BITMAP
07C0
1FF0
3C78
7018
7000
E000
E000
E000
E000
E000
7000
7018
3C78
1FF0
07C0
ENDCHAR
STARTCHAR d
ENCODING 100
SWIDTH 550 0
DWIDTH 17 0
BBX 15 21 1 0
BITMAP
000E
000E
000E
000E
000E
000E
07CE
1FFE
3C3E
701E
700E
E00E
E00E
E00E
E00E
E00E
700E
701E
3C3E
1FFE
07CE
ENDCHAR
STARTCHAR e
ENCODING 101
SWIDTH 550 0
DWIDTH 16 0
BBX 14 15 1 0
BITMAP
07C0
1FF0
3C78
7018
701C
E00C
FFFC
FFFC
E000
E000
7000
7018
3C78
1FF0
07C0
ENDCHAR
STARTCHAR f
ENCODING 102
SWIDTH 275 0
DWIDTH 8 0
BBX 8 21 0 0
BITMAP
0F
1F
1C
38
38
38
FF
FF
38
38
38
38
38
38
38
38
38
38
38
38
38
ENDCHAR
STARTCHAR g
ENCODING 103
SWIDTH 550 0
DWIDTH 17 0
BBX 14 21 1 -6
BITMAP
07DC
1FFC
3C7C
701C
701C
E01C
E01C
E01C
E01C
E01C
701C
701C
3C7C
1FFC
07DC
001C
601C
601C
7838
3FF8
0FE0
ENDCHAR
STARTCHAR h
ENCODING 104
SWIDTH 550 0
DWIDTH 17 0
BBX 13 21 2 0
BITMAP
E000
E000
E000
E000
E000
E000
E3C0
EFF0
FC70
F038
E038
E038
E038
E038
E038
E038
E038
E038
E038
E038
E038
ENDCHAR
STARTCHAR i
ENCODING 105
SWIDTH 225 0
DWIDTH 7 0
BBX 3 21 2 0
BITMAP
E0
E0
E0
00
00
E0
E0
E0
E0
E0
E0
E0
E0
E0
E0
E0
E0
E0
E0
E0
E0
ENDCHAR
STARTCHAR j
ENCODING 106
SWIDTH 225 0
DWIDTH 7 0
BBX 5 27 0 -6
BITMAP
38
38
38
00
00
38
38
38
38
38
38
38
38
38
38
38
38
38
38
38
38
38
38
38
38
F0
E0
ENDCHAR
STARTCHAR k
ENCODING 107
SWIDTH 500 0
DWIDTH 15 0
BBX 12 21 1 0
BITMAP
E000
E000
E000
E000
E000
E000
E070
E0E0
E1C0
E380
E700
EE00
FF00
FF00
F380
E380
E1C0
E0E0
E0E0
E070
E070
ENDCHAR
STARTCHAR l
ENCODING 108
SWIDTH 225 0
DWIDTH 7 0
BBX 3 21 2 0
BITMAP
E0
E0
E0
E0
E0
E0
E0
E0
E0
E0
E0
E0
E0
E0
E0
E0
E0
E0
E0
E0
E0
ENDCHAR
STARTCHAR m
ENCODING 109
SWIDTH 825 0
DWIDTH 23 0
BBX 19 15 2 0
BITMAP
EF0F00
FFFFC0
F1F0C0
E0E0E0
E0E0E0
E0E0E0
E0E0E0
E0E0E0
E0E0E0
E0E0E0
E0E0E0
E0E0E0
E0E0E0
E0E0E0
E0E0E0
ENDCHAR
STARTCHAR n
ENCODING 110
SWIDTH 550 0
DWIDTH 17 0
BBX 13 15 2 0
BITMAP
E3C0
EFF0
FC70
F038
E038
E038
E038
E038
E038
E038
E038
E038
E038
E038
E038
ENDCHAR
STARTCHAR o
ENCODING 111
SWIDTH 575 0
DWIDTH 17 0
BBX 15 15 1 0
BITMAP
07C0
1FF0
3C78
701C
701C
E00E
E00E
E00E
E00E
E00E
701C
701C
3C78
1FF0
07C0
ENDCHAR
STARTCHAR p
ENCODING 112
SWIDTH 550 0
DWIDTH 17 0
BBX 14 21 2 -6
BITMAP
E780
FFE0
F8F0
F038
E038
E01C
E01C
E01C
E01C
E01C
E038
F038
F8F0
FFE0
E780
E000
E000
E000
E000
E000
E000
ENDCHAR
STARTCHAR q
ENCODING 113
SWIDTH 550 0
DWIDTH 17 0
BBX 14 21 1 -6
BITMAP
079C
1FFC
3C7C
703C
701C
E01C
E01C
E01C
E01C
E01C
701C
703C
3C7C
1FFC
079C
001C
001C
001C
001C
001C
001C
ENDCHAR
STARTCHAR r
ENCODING 114
SWIDTH 325 0
DWIDTH 10 0
BBX 8 15 1 0
BITMAP
E7
FF
F8
F0
E0
E0
E0
E0
E0
E0
E0
E0
E0
E0
E0
ENDCHAR
STARTCHAR s
ENCODING 115
SWIDTH 500 0
DWIDTH 15 0
BBX 13 15 1 0
BITMAP
1F80
7FE0
70F0
E070
F000
7E00
7FC0
0FF0
00F0
0038
E038
E038
78F8
7FF0
0FC0
ENDCHAR
STARTCHAR t
ENCODING 116
SWIDTH 275 0
DWIDTH 8 0
BBX 8 21 0 0
BITMAP
38
38
38
38
38
38
FF
FF
38
38
38
38
38
38
38
38
38
38
3C
3F
1F
ENDCHAR
STARTCHAR u
ENCODING 117
SWIDTH 550 0
DWIDTH 17 0
BBX 13 15 2 0
BITMAP
E038
E038
E038
E038
E038
E038
E038
E038
E038
E038
E038
E078
71F8
7FB8
1E38
ENDCHAR
STARTCHAR v
ENCODING 118
SWIDTH 475 0
DWIDTH 15 0
BBX 15 15 0 0
BITMAP
E00E
E00E
701C
701C
3018
3838
3838
1C70
1C70
0EE0
0EE0
07C0
07C0
0380
0380
ENDCHAR
STARTCHAR w
ENCODING 119
SWIDTH 725 0
DWIDTH 22 0
BBX 22 15 0 0
BITMAP
E0301C
E0301C
707838
707838
307830
38FC70
38FC70
18CC60
1DCEE0
1DCEE0
0F87C0
0F87C0
0F87C0
070380
070380
ENDCHAR
STARTCHAR x
ENCODING 120
SWIDTH 525 0
DWIDTH 15 0
BBX 15 15 0 0
BITMAP
F01E
701C
3838
1C70
1C70
0EE0
07C0
07C0
07C0
0EE0
1C70
1C70
3838
701C
F01E
ENDCHAR
STARTCHAR y
ENCODING 121
SWIDTH 500 0
DWIDTH 15 0
BBX 15 21 0 -6
BITMAP
E00E
E00E
701C
701C
3838
3838
3838
1C70
1C70
0EE0
0EE0
07C0
07C0
0380
0380
0700
0700
0E00
0E00
3C00
3800
ENDCHAR
STARTCHAR z
ENCODING 122
SWIDTH 500 0
DWIDTH 15 0
BBX 13 15 1 0
BITMAP
FFF8
FFF8
0078
00F0
01E0
03C0
0780
0F00
1E00
3C00
7800
F000
E000
FFF8
FFF8
ENDCHAR
STARTCHAR braceleft
ENCODING 123
SWIDTH 325 0
DWIDTH 10 0
BBX 9 27 1 -6
BITMAP
0780
0F80
0E00
1C00
1C00
1C00
1C00
1C00
1C00
1C00
1800
3800
F000
F000
3800
1800
1C00
1C00
1C00
1C00
1C00
1C00
1C00
1C00
0E00
0F80
0780
ENDCHAR
STARTCHAR bar
ENCODING 124
SWIDTH 250 0
DWIDTH 8 0
BBX 2 31 3 -7
BITMAP
C0
C0
C0
C0
C0
C0
C0
C0
C0
C0
C0
C0
C0
C0
C0
C0
C0
C0
C0
C0
C0
C0
C0
C0
C0
C0
C0
C0
C0
C0
C0
ENDCHAR
STARTCHAR braceright
ENCODING 125
SWIDTH 325 0
DWIDTH 10 0
BBX 9 27 0 -6
BITMAP
F000
F800
3800
1C00
1C00
1C00
1C00
1C00
1C00
1C00
0C00
0E00
0780
0780
0E00
0C00
1C00
1C00
1C00
1C00
1C00
1C00
1C00
1C00
3800
F800
F000
ENDCHAR
STARTCHAR asciitilde
ENCODING 126
SWIDTH 325 0
DWIDTH 10 0
BBX 9 3 1 20
BITMAP
3980
FF80
CE00
ENDCHAR
STARTCHAR uni007F
ENCODING 127
SWIDTH 975 0
DWIDTH 30 0
BBX 30 30 0 -6
BITMAP
FC0FC0FC
FC0FC0FC
FC0FC0FC
FC0FC0FC
FC0FC0FC
FC0FC0FC
03F03F00
03F03F00
03F03F00
03F03F00
03F03F00
03F03F00
FC0FC0FC
FC0FC0FC
FC0FC0FC
FC0FC0FC
FC0FC0FC
FC0FC0FC
03F03F00
03F03F00
03F03F00
03F03F00
03F03F00
03F03F00
FC0FC0FC
FC0FC0FC
FC0FC0FC
FC0FC0FC
FC0FC0FC
FC0FC0FC
ENDCHAR
STARTCHAR Euro
ENCODING 128
SWIDTH 275 0
DWIDTH 8 0
BBX 3 3 2 0
BITMAP
E0
E0
E0
ENDCHAR
STARTCHAR NameMe.129
ENCODING 129
SWIDTH 275 0
DWIDTH 8 0
BBX 3 3 2 0
BITMAP
E0
E0
E0
ENDCHAR
STARTCHAR quotesinglbase
ENCODING 130
SWIDTH 275 0
DWIDTH 8 0
BBX 3 3 2 0
BITMAP
E0
E0
E0
ENDCHAR
STARTCHAR florin
ENCODING 131
SWIDTH 275 0
DWIDTH 8 0
BBX 3 3 2 0
BITMAP
E0
E0
E0
ENDCHAR
STARTCHAR quotedblbase
ENCODING 132
SWIDTH 275 0
DWIDTH 8 0
BBX 3 3 2 0
BITMAP
E0
E0
E0
ENDCHAR
STARTCHAR ellipsis
ENCODING 133
SWIDTH 275 0
DWIDTH 8 0
BBX 3 3 2 0
BITMAP
E0
E0
E0
ENDCHAR
STARTCHAR dagger
ENCODING 134
SWIDTH 275 0
DWIDTH 8 0
BBX 3 3 2 0
BITMAP
E0
E0
E0
ENDCHAR
STARTCHAR daggerdbl
ENCODING 135
SWIDTH 275 0
DWIDTH 8 0
BBX 3 3 2 0
BITMAP
E0
E0
E0
ENDCHAR
STARTCHAR circumflex
ENCODING 136
SWIDTH 275 0
DWIDTH 8 0
BBX 3 3 2 0
BITMAP
E0
E0
E0
ENDCHAR
STARTCHAR perthousand
ENCODING 137
SWIDTH 275 0
DWIDTH 8 0
BBX 3 3 2 0
BITMAP
E0
E0
E0
ENDCHAR
STARTCHAR Scaron
ENCODING 138
SWIDTH 275 0
DWIDTH 8 0
BBX 3 3 2 0
BITMAP
E0
E0
E0
ENDCHAR
STARTCHAR guilsinglleft
ENCODING 139
SWIDTH 275 0
DWIDTH 8 0
BBX 3 3 2 0
BITMAP
E0
E0
E0
ENDCHAR
STARTCHAR OE
ENCODING 140
SWIDTH 275 0
DWIDTH 8 0
BBX 3 3 2 0
BITMAP
E0
E0
E0
ENDCHAR
STARTCHAR NameMe.141
ENCODING 141
SWIDTH 275 0
DWIDTH 8 0
BBX 3 3 2 0
BITMAP
E0
E0
E0
ENDCHAR
STARTCHAR Zcaron
ENCODING 142
SWIDTH 275 0
DWIDTH 8 0
BBX 3 3 2 0
BITMAP
E0
E0
E0
ENDCHAR
STARTCHAR NameMe.143
ENCODING 143
SWIDTH 275 0
DWIDTH 8 0
BBX 3 3 2 0
BITMAP
E0
E0
E0
ENDCHAR
STARTCHAR NameMe.144
ENCODING 144
SWIDTH 275 0
DWIDTH 8 0
BBX 3 3 2 0
BITMAP
E0
E0
E0
ENDCHAR
STARTCHAR quoteleft
ENCODING 145
SWIDTH 225 0
DWIDTH 7 0
BBX 3 7 2 13
BITMAP
20
60
C0
C0
E0
E0
E0
ENDCHAR
STARTCHAR quoteright
ENCODING 146
SWIDTH 225 0
DWIDTH 7 0
BBX 3 7 2 13
BITMAP
E0
E0
E0
60
60
C0
80
ENDCHAR
STARTCHAR quotedblleft
ENCODING 147
SWIDTH 275 0
DWIDTH 8 0
BBX 3 3 2 0
BITMAP
E0
E0
E0
ENDCHAR
STARTCHAR quotedblright
ENCODING 148
SWIDTH 275 0
DWIDTH 8 0
BBX 3 3 2 0
BITMAP
E0
E0
E0
ENDCHAR
STARTCHAR bullet
ENCODING 149
SWIDTH 275 0
DWIDTH 8 0
BBX 3 3 2 0
BITMAP
E0
E0
E0
ENDCHAR
STARTCHAR endash
ENCODING 150
SWIDTH 275 0
DWIDTH 8 0
BBX 3 3 2 0
BITMAP
E0
E0
E0
ENDCHAR
STARTCHAR emdash
ENCODING 151
SWIDTH 275 0
DWIDTH 8 0
BBX 3 3 2 0
BITMAP
E0
E0
E0
ENDCHAR
STARTCHAR tilde
ENCODING 152
SWIDTH 275 0
DWIDTH 8 0
BBX 3 3 2 0
BITMAP
E0
E0
E0
ENDCHAR
STARTCHAR trademark
ENCODING 153
SWIDTH 275 0
DWIDTH 8 0
BBX 3 3 2 0
BITMAP
E0
E0
E0
ENDCHAR
STARTCHAR scaron
ENCODING 154
SWIDTH 275 0
DWIDTH 8 0
BBX 3 3 2 0
BITMAP
E0
E0
E0
ENDCHAR
STARTCHAR guilsinglright
ENCODING 155
SWIDTH 275 0
DWIDTH 8 0
BBX 3 3 2 0
BITMAP
E0
E0
E0
ENDCHAR
STARTCHAR oe
ENCODING 156
SWIDTH 275 0
DWIDTH 8 0
BBX 3 3 2 0
BITMAP
E0
E0
E0
ENDCHAR
STARTCHAR NameMe.157
ENCODING 157
SWIDTH 275 0
DWIDTH 8 0
BBX 3 3 2 0
BITMAP
E0
E0
E0
ENDCHAR
STARTCHAR zcaron
ENCODING 158
SWIDTH 275 0
DWIDTH 8 0
BBX 3 3 2 0
BITMAP
E0
E0
E0
ENDCHAR
STARTCHAR Ydieresis
ENCODING 159
SWIDTH 275 0
DWIDTH 8 0
BBX 3 3 2 0
BITMAP
E0
E0
E0
ENDCHAR
STARTCHAR uni00A0
ENCODING 160
SWIDTH 275 0
DWIDTH 8 0
BBX 1 1 7 -7
BITMAP
00
ENDCHAR
STARTCHAR exclamdown
ENCODING 161
SWIDTH 325 0
DWIDTH 10 0
BBX 3 21 3 0
BITMAP
E0
E0
E0
00
00
E0
E0
E0
E0
E0
E0
E0
E0
E0
E0
E0
E0
E0
E0
E0
E0
ENDCHAR
STARTCHAR cent
ENCODING 162
SWIDTH 550 0
DWIDTH 15 0
BBX 13 22 1 -3
BITMAP
0060
0060
0040
00C0
03C0
0FF0
3CF8
7098
7180
E100
E300
E300
E200
E600
7600
7418
3C78
1FF0
0FC0
0C00
1800
1800
ENDCHAR
STARTCHAR sterling
ENCODING 163
SWIDTH 550 0
DWIDTH 17 0
BBX 15 21 1 0
BITMAP
0FE0
3FF8
787C
701C
E00E
E00E
E00E
E000
7000
7800
FFC0
FFC0
1C00
1C00
1C00
1800
3800
7780
FFE6
F8FE
403C
ENDCHAR
STARTCHAR currency
ENCODING 164
SWIDTH 550 0
DWIDTH 17 0
BBX 16 16 1 5
BITMAP
4002
E007
73CE
3FFC
1E78
1818
381C
300C
300C
381C
1818
1E78
3FFC
73CE
E007
4002
ENDCHAR
STARTCHAR yen
ENCODING 165
SWIDTH 550 0
DWIDTH 17 0
BBX 17 21 0 0
BITMAP
F00780
700700
780F00
380E00
3C1E00
1C1C00
1E3C00
0E3800
FF7F80
07F000
03E000
FFFF80
01C000
01C000
01C000
01C000
01C000
01C000
01C000
01C000
01C000
ENDCHAR
STARTCHAR brokenbar
ENCODING 166
SWIDTH 250 0
DWIDTH 8 0
BBX 2 26 3 -5
BITMAP
C0
C0
C0
C0
C0
C0
C0
C0
C0
C0
C0
00
00
00
00
C0
C0
C0
C0
C0
C0
C0
C0
C0
C0
C0
ENDCHAR
STARTCHAR section
ENCODING 167
SWIDTH 550 0
DWIDTH 15 0
BBX 14 24 1 0
BITMAP
0F80
3FE0
38F0
7070
7030
7800
3E00
1F80
7FC0
71F0
E0F8
E038
F01C
7C1C
3E3C
0FF8
03F0
01F0
0078
E038
E038
78F0
7FF0
0FC0
ENDCHAR
STARTCHAR dieresis
ENCODING 168
SWIDTH 325 0
DWIDTH 10 0
BBX 8 3 1 19
BITMAP
E7
E7
E7
ENDCHAR
STARTCHAR copyright
ENCODING 169
SWIDTH 725 0
DWIDTH 22 0
BBX 21 21 0 1
BITMAP
01FC00
07FF00
1F07C0
1C01C0
38F8E0
71FC70
738E70
638630
E70038
E70038
E70038
E70038
E70038
E38638
738E70
71FC70
38F8E0
1C01C0
1F07C0
07FF00
01FC00
ENDCHAR
STARTCHAR ordfeminine
ENCODING 170
SWIDTH 375 0
DWIDTH 11 0
BBX 9 13 1 8
BITMAP
3E00
FF00
C300
1F00
7F00
E300
C700
FF80
7980
0000
0000
FF80
FF80
ENDCHAR
STARTCHAR guillemotleft
ENCODING 171
SWIDTH 525 0
DWIDTH 17 0
BBX 11 11 3 2
BITMAP
0820
1860
38E0
71C0
E380
E380
E380
71C0
38E0
1860
0820
ENDCHAR
STARTCHAR logicalnot
ENCODING 172
SWIDTH 575 0
DWIDTH 17 0
BBX 13 7 2 4
BITMAP
FFF8
FFF8
0018
0018
0018
0018
0018
ENDCHAR
STARTCHAR uni00AD
ENCODING 173
SWIDTH 325 0
DWIDTH 10 0
BBX 8 2 1 6
BITMAP
FF
FF
ENDCHAR
STARTCHAR registered
ENCODING 174
SWIDTH 725 0
DWIDTH 22 0
BBX 21 21 0 1
BITMAP
01FC00
07FF00
1F07C0
1C01C0
3BF8E0
73FC70
739E70
638E30
E38E38
E3FC38
E3FC38
E39E38
E38E38
E38E38
738E70
738E70
3800E0
1C01C0
1F07C0
07FF00
01FC00
ENDCHAR
STARTCHAR macron
ENCODING 175
SWIDTH 550 0
DWIDTH 17 0
BBX 15 2 1 22
BITMAP
FFFE
FFFE
ENDCHAR
STARTCHAR degree
ENCODING 176
SWIDTH 400 0
DWIDTH 12 0
BBX 8 8 2 12
BITMAP
18
7E
66
C3
C3
66
7E
18
ENDCHAR
STARTCHAR plusminus
ENCODING 177
SWIDTH 575 0
DWIDTH 17 0
BBX 12 16 3 0
BITMAP
0600
0600
0600
0600
0600
FFF0
FFF0
0600
0600
0600
0600
0600
0000
0000
FFF0
FFF0
ENDCHAR
STARTCHAR uni00B2
ENCODING 178
SWIDTH 325 0
DWIDTH 10 0
BBX 9 13 0 8
BITMAP
1E00
7F00
6180
C180
C180
0300
0F00
3C00
3000
7000
6000
FF80
FF80
ENDCHAR
STARTCHAR uni00B3
ENCODING 179
SWIDTH 325 0
DWIDTH 10 0
BBX 9 12 0 9
BITMAP
1E00
7F00
6380
0180
0380
1F00
1F00
0380
C180
E380
7F00
1E00
ENDCHAR
STARTCHAR acute
ENCODING 180
SWIDTH 325 0
DWIDTH 10 0
BBX 6 5 2 18
BITMAP
1C
38
70
60
C0
ENDCHAR
STARTCHAR mu
ENCODING 181
SWIDTH 550 0
DWIDTH 17 0
BBX 17 21 0 -6
BITMAP
0E0380
0E0380
0E0300
0E0700
1C0700
1C0700
1C0600
1C0600
180E00
380E00
381E00
381C00
3C7C00
3FEF00
73CE00
700000
600000
600000
E00000
E00000
E00000
ENDCHAR
STARTCHAR paragraph
ENCODING 182
SWIDTH 525 0
DWIDTH 16 0
BBX 14 21 1 0
BITMAP
1FFC
7E30
7E30
FE30
FE30
FE30
FE30
7E30
7E30
1E30
0630
0630
0630
0630
0630
0630
0630
0630
0630
0630
0630
ENDCHAR
STARTCHAR periodcentered
ENCODING 183
SWIDTH 275 0
DWIDTH 8 0
BBX 3 3 3 9
BITMAP
E0
E0
E0
ENDCHAR
STARTCHAR cedilla
ENCODING 184
SWIDTH 325 0
DWIDTH 10 0
BBX 7 6 2 -6
BITMAP
30
30
3C
0E
CE
7C
ENDCHAR
STARTCHAR uni00B9
ENCODING 185
SWIDTH 325 0
DWIDTH 10 0
BBX 5 12 2 9
BITMAP
18
F8
F8
18
18
18
18
18
18
18
18
18
ENDCHAR
STARTCHAR ordmasculine
ENCODING 186
SWIDTH 375 0
DWIDTH 11 0
BBX 9 13 1 8
BITMAP
1C00
7F00
6300
C180
C180
C180
6300
7F00
1C00
0000
0000
FF80
FF80
ENDCHAR
STARTCHAR guillemotright
ENCODING 187
SWIDTH 525 0
DWIDTH 17 0
BBX 11 11 3 2
BITMAP
8200
C300
E380
71C0
38E0
38E0
38E0
71C0
E380
C300
8200
ENDCHAR
STARTCHAR onequarter
ENCODING 188
SWIDTH 825 0
DWIDTH 25 0
BBX 21 21 2 1
BITMAP
180180
180180
F80300
F80600
180600
180C00
181800
181800
183070
1830F0
1860F0
18C1B0
00C330
018330
018630
0307F8
0607F8
060030
0C0030
180030
180030
ENDCHAR
STARTCHAR onehalf
ENCODING 189
SWIDTH 825 0
DWIDTH 25 0
BBX 22 21 2 1
BITMAP
180180
180180
F80300
F80600
180600
180C00
181800
181800
183000
1830F0
1863F8
18C30C
00C60C
01860C
018018
030078
0601E0
060380
0C0300
1807FC
1807FC
ENDCHAR
STARTCHAR threequarters
ENCODING 190
SWIDTH 825 0
DWIDTH 25 0
BBX 23 21 0 1
BITMAP
1E0060
7F0060
6380C0
018180
038180
1F0300
1F0600
038600
C18C1C
E38C3C
7F183C
1E306C
0030CC
0060CC
00618C
00C1FE
0181FE
01800C
03000C
06000C
06000C
ENDCHAR
STARTCHAR questiondown
ENCODING 191
SWIDTH 550 0
DWIDTH 16 0
BBX 13 21 2 0
BITMAP
0700
0700
0700
0000
0000
0700
0700
0700
0E00
0E00
1C00
3800
7000
7000
E038
E038
E038
F070
78F0
3FE0
0F80
ENDCHAR
STARTCHAR Agrave
ENCODING 192
SWIDTH 675 0
DWIDTH 21 0
BBX 20 29 0 0
BITMAP
070000
038000
01C000
00C000
006000
000000
000000
000000
00F000
00F000
01F800
01F800
039C00
039C00
070E00
070E00
070E00
0E0700
0E0700
1C0380
1FFF80
1FFF80
3FFFC0
3801C0
7000E0
7000E0
7000E0
E00070
E00070
ENDCHAR
STARTCHAR Aacute
ENCODING 193
SWIDTH 675 0
DWIDTH 21 0
BBX 20 29 0 0
BITMAP
000E00
001C00
003800
003000
006000
000000
000000
000000
00F000
00F000
01F800
01F800
039C00
039C00
070E00
070E00
070E00
0E0700
0E0700
1C0380
1FFF80
1FFF80
3FFFC0
3801C0
7000E0
7000E0
7000E0
E00070
E00070
ENDCHAR
STARTCHAR Acircumflex
ENCODING 194
SWIDTH 675 0
DWIDTH 21 0
BBX 20 29 0 0
BITMAP
006000
00F000
01F800
039C00
070E00
000000
000000
000000
00F000
00F000
01F800
01F800
039C00
039C00
070E00
070E00
070E00
0E0700
0E0700
1C0380
1FFF80
1FFF80
3FFFC0
3801C0
7000E0
7000E0
7000E0
E00070
E00070
ENDCHAR
STARTCHAR Atilde
ENCODING 195
SWIDTH 675 0
DWIDTH 21 0
BBX 20 28 0 0
BITMAP
01C600
07FE00
063800
000000
000000
000000
000000
00F000
00F000
01F800
01F800
039C00
039C00
070E00
070E00
070E00
0E0700
0E0700
1C0380
1FFF80
1FFF80
3FFFC0
3801C0
7000E0
7000E0
7000E0
E00070
E00070
ENDCHAR
STARTCHAR Adieresis
ENCODING 196
SWIDTH 675 0
DWIDTH 21 0
BBX 20 28 0 0
BITMAP
039C00
039C00
039C00
000000
000000
000000
000000
00F000
00F000
01F800
01F800
039C00
039C00
070E00
070E00
070E00
0E0700
0E0700
1C0380
1FFF80
1FFF80
3FFFC0
3801C0
7000E0
7000E0
7000E0
E00070
E00070
ENDCHAR
STARTCHAR Aring
ENCODING 197
SWIDTH 675 0
DWIDTH 21 0
BBX 20 28 0 0
BITMAP
007000
00F800
018C00
018C00
00F800
007000
000000
00F000
00F000
01F800
01F800
039C00
039C00
070E00
070E00
070E00
0E0700
0E0700
1C0380
1FFF80
1FFF80
3FFFC0
3801C0
7000E0
7000E0
7000E0
E00070
E00070
ENDCHAR
STARTCHAR AE
ENCODING 198
SWIDTH 1000 0
DWIDTH 30 0
BBX 27 21 1 0
BITMAP
007FFFE0
007FFFE0
00FFFFE0
00E70000
01C70000
01C70000
03870000
03870000
07070000
0707FFC0
0E07FFC0
0E07FFC0
0FFF0000
1FFF0000
1FFF0000
38070000
38070000
70070000
7007FFE0
E007FFE0
E007FFE0
ENDCHAR
STARTCHAR Ccedilla
ENCODING 199
SWIDTH 725 0
DWIDTH 21 0
BBX 18 27 1 -6
BITMAP
01F000
07FC00
1FFF00
3E0F80
380380
7001C0
7001C0
E00000
E00000
E00000
E00000
E00000
E00000
E00000
7001C0
7001C0
380380
1E0F80
0FFF00
07FC00
01F000
00C000
00C000
00E000
003000
033000
01E000
ENDCHAR
STARTCHAR Egrave
ENCODING 200
SWIDTH 675 0
DWIDTH 20 0
BBX 16 29 2 0
BITMAP
0E00
0700
0380
0180
00C0
0000
0000
0000
FFFF
FFFF
FFFF
E000
E000
E000
E000
E000
E000
FFFE
FFFE
FFFE
E000
E000
E000
E000
E000
E000
FFFF
FFFF
FFFF
ENDCHAR
STARTCHAR Eacute
ENCODING 201
SWIDTH 675 0
DWIDTH 20 0
BBX 16 29 2 0
BITMAP
0038
0070
00E0
00C0
0180
0000
0000
0000
FFFF
FFFF
FFFF
E000
E000
E000
E000
E000
E000
FFFE
FFFE
FFFE
E000
E000
E000
E000
E000
E000
FFFF
FFFF
FFFF
ENDCHAR
STARTCHAR Ecircumflex
ENCODING 202
SWIDTH 675 0
DWIDTH 20 0
BBX 16 29 2 0
BITMAP
00C0
01E0
03F0
0738
0E1C
0000
0000
0000
FFFF
FFFF
FFFF
E000
E000
E000
E000
E000
E000
FFFE
FFFE
FFFE
E000
E000
E000
E000
E000
E000
FFFF
FFFF
FFFF
ENDCHAR
STARTCHAR Edieresis
ENCODING 203
SWIDTH 675 0
DWIDTH 20 0
BBX 16 28 2 0
BITMAP
0E70
0E70
0E70
0000
0000
0000
0000
FFFF
FFFF
FFFF
E000
E000
E000
E000
E000
E000
FFFE
FFFE
FFFE
E000
E000
E000
E000
E000
E000
FFFF
FFFF
FFFF
ENDCHAR
STARTCHAR Igrave
ENCODING 204
SWIDTH 250 0
DWIDTH 8 0
BBX 6 29 0 0
BITMAP
E0
70
38
18
0C
00
00
00
1C
1C
1C
1C
1C
1C
1C
1C
1C
1C
1C
1C
1C
1C
1C
1C
1C
1C
1C
1C
1C
ENDCHAR
STARTCHAR Iacute
ENCODING 205
SWIDTH 250 0
DWIDTH 8 0
BBX 6 29 2 0
BITMAP
1C
38
70
60
C0
00
00
00
70
70
70
70
70
70
70
70
70
70
70
70
70
70
70
70
70
70
70
70
70
ENDCHAR
STARTCHAR Icircumflex
ENCODING 206
SWIDTH 250 0
DWIDTH 8 0
BBX 8 29 0 0
BITMAP
18
3C
7E
E7
C3
00
00
00
1C
1C
1C
1C
1C
1C
1C
1C
1C
1C
1C
1C
1C
1C
1C
1C
1C
1C
1C
1C
1C
ENDCHAR
STARTCHAR Idieresis
ENCODING 207
SWIDTH 250 0
DWIDTH 8 0
BBX 8 28 0 0
BITMAP
E7
E7
E7
00
00
00
00
1C
1C
1C
1C
1C
1C
1C
1C
1C
1C
1C
1C
1C
1C
1C
1C
1C
1C
1C
1C
1C
ENDCHAR
STARTCHAR Eth
ENCODING 208
SWIDTH 725 0
DWIDTH 21 0
BBX 19 21 1 0
BITMAP
3FF000
3FFE00
3FFF00
380F80
3803C0
3801C0
3801E0
3800E0
3800E0
FFE0E0
FFE0E0
FFE0E0
3800E0
3800E0
3801E0
3801C0
3803C0
380F80
3FFF00
3FFE00
3FF000
ENDCHAR
STARTCHAR Ntilde
ENCODING 209
SWIDTH 725 0
DWIDTH 22 0
BBX 17 28 2 0
BITMAP
039800
0FF800
0CE000
000000
000000
000000
000000
F00380
F00380
F80380
FC0380
FC0380
EE0380
EF0380
E70380
E38380
E3C380
E1C380
E0E380
E0E380
E07380
E07B80
E03B80
E01F80
E01F80
E00F80
E00780
E00780
ENDCHAR
STARTCHAR Ograve
ENCODING 210
SWIDTH 775 0
DWIDTH 22 0
BBX 19 29 1 0
BITMAP
070000
038000
01C000
00C000
006000
000000
000000
01F000
07FC00
1FFF00
3E0F80
380380
7001C0
7001C0
E000E0
E000E0
E000E0
E000E0
E000E0
E000E0
E000E0
E000E0
7001C0
7001C0
380380
3E0F80
1FFF00
07FC00
01F000
ENDCHAR
STARTCHAR Oacute
ENCODING 211
SWIDTH 775 0
DWIDTH 22 0
BBX 19 29 1 0
BITMAP
001C00
003800
007000
006000
00C000
000000
000000
01F000
07FC00
1FFF00
3E0F80
380380
7001C0
7001C0
E000E0
E000E0
E000E0
E000E0
E000E0
E000E0
E000E0
E000E0
7001C0
7001C0
380380
3E0F80
1FFF00
07FC00
01F000
ENDCHAR
STARTCHAR Ocircumflex
ENCODING 212
SWIDTH 775 0
DWIDTH 22 0
BBX 19 29 1 0
BITMAP
006000
00F000
01F800
039C00
070E00
000000
000000
01F000
07FC00
1FFF00
3E0F80
380380
7001C0
7001C0
E000E0
E000E0
E000E0
E000E0
E000E0
E000E0
E000E0
E000E0
7001C0
7001C0
380380
3E0F80
1FFF00
07FC00
01F000
ENDCHAR
STARTCHAR Otilde
ENCODING 213
SWIDTH 775 0
DWIDTH 22 0
BBX 19 28 1 0
BITMAP
01CC00
07FC00
067000
000000
000000
000000
01F000
07FC00
1FFF00
3E0F80
380380
7001C0
7001C0
E000E0
E000E0
E000E0
E000E0
E000E0
E000E0
E000E0
E000E0
7001C0
7001C0
380380
3E0F80
1FFF00
07FC00
01F000
ENDCHAR
STARTCHAR Odieresis
ENCODING 214
SWIDTH 775 0
DWIDTH 22 0
BBX 19 28 1 0
BITMAP
039C00
039C00
039C00
000000
000000
000000
01F000
07FC00
1FFF00
3E0F80
380380
7001C0
7001C0
E000E0
E000E0
E000E0
E000E0
E000E0
E000E0
E000E0
E000E0
7001C0
7001C0
380380
3E0F80
1FFF00
07FC00
01F000
ENDCHAR
STARTCHAR multiply
ENCODING 215
SWIDTH 575 0
DWIDTH 15 0
BBX 14 14 0 0
BITMAP
4008
E01C
7038
3870
1CE0
0FC0
0780
0780
0FC0
1CE0
3870
7038
E01C
4008
ENDCHAR
STARTCHAR Oslash
ENCODING 216
SWIDTH 775 0
DWIDTH 22 0
BBX 19 22 1 0
BITMAP
01F020
07FC60
1FFFC0
3E0F80
380380
7001C0
7003C0
E006E0
E00CE0
E018E0
E030E0
E060E0
E0C0E0
E180E0
E300E0
7601C0
7C01C0
380380
3E0F80
7FFF00
C7FC00
81F000
ENDCHAR
STARTCHAR Ugrave
ENCODING 217
SWIDTH 725 0
DWIDTH 22 0
BBX 17 29 2 0
BITMAP
0E0000
070000
038000
018000
00C000
000000
000000
000000
E00380
E00380
E00380
E00380
E00380
E00380
E00380
E00380
E00380
E00380
E00380
E00380
E00380
E00380
E00380
F00780
700700
7C1F00
3FFE00
1FFC00
03E000
ENDCHAR
STARTCHAR Uacute
ENCODING 218
SWIDTH 725 0
DWIDTH 22 0
BBX 17 29 2 0
BITMAP
003800
007000
00E000
00C000
018000
000000
000000
000000
E00380
E00380
E00380
E00380
E00380
E00380
E00380
E00380
E00380
E00380
E00380
E00380
E00380
E00380
E00380
F00780
700700
7C1F00
3FFE00
1FFC00
03E000
ENDCHAR
STARTCHAR Ucircumflex
ENCODING 219
SWIDTH 725 0
DWIDTH 22 0
BBX 17 29 2 0
BITMAP
00C000
01E000
03F000
073800
0E1C00
000000
000000
000000
E00380
E00380
E00380
E00380
E00380
E00380
E00380
E00380
E00380
E00380
E00380
E00380
E00380
E00380
E00380
F00780
700700
7C1F00
3FFE00
1FFC00
03E000
ENDCHAR
STARTCHAR Udieresis
ENCODING 220
SWIDTH 725 0
DWIDTH 22 0
BBX 17 28 2 0
BITMAP
073800
073800
073800
000000
000000
000000
000000
E00380
E00380
E00380
E00380
E00380
E00380
E00380
E00380
E00380
E00380
E00380
E00380
E00380
E00380
E00380
F00780
700700
7C1F00
3FFE00
1FFC00
03E000
ENDCHAR
STARTCHAR Yacute
ENCODING 221
SWIDTH 650 0
DWIDTH 20 0
BBX 19 29 0 0
BITMAP
000E00
001C00
003800
003000
006000
000000
000000
000000
E000E0
F001E0
7803C0
380380
3C0780
1E0F00
0E0E00
0F1E00
07BC00
03B800
03F800
01F000
00E000
00E000
00E000
00E000
00E000
00E000
00E000
00E000
00E000
ENDCHAR
STARTCHAR Thorn
ENCODING 222
SWIDTH 675 0
DWIDTH 20 0
BBX 17 21 1 0
BITMAP
E00000
E00000
E00000
E00000
FFF800
FFFE00
FFFF00
E00700
E00380
E00380
E00380
E00380
E00700
FFFF00
FFFE00
FFF800
E00000
E00000
E00000
E00000
E00000
ENDCHAR
STARTCHAR germandbls
ENCODING 223
SWIDTH 575 0
DWIDTH 18 0
BBX 15 21 1 0
BITMAP
0FC0
3FF0
7078
7038
E01C
E01C
E01C
E038
E078
E1F0
E1F8
E03C
E01C
E00E
E00E
E00E
E00E
E01C
E03C
E3F8
E3E0
ENDCHAR
STARTCHAR agrave
ENCODING 224
SWIDTH 550 0
DWIDTH 16 0
BBX 14 23 1 0
BITMAP
3800
1C00
0E00
0600
0300
0000
0000
0FC0
3FF0
7878
7038
0038
0078
0FF8
3FB8
7838
E038
E038
E038
E078
71F8
7FBC
1E1C
ENDCHAR
STARTCHAR aacute
ENCODING 225
SWIDTH 550 0
DWIDTH 16 0
BBX 14 23 1 0
BITMAP
00E0
01C0
0380
0300
0600
0000
0000
0FC0
3FF0
7878
7038
0038
0078
0FF8
3FB8
7838
E038
E038
E038
E078
71F8
7FBC
1E1C
ENDCHAR
STARTCHAR acircumflex
ENCODING 226
SWIDTH 550 0
DWIDTH 16 0
BBX 14 23 1 0
BITMAP
0300
0780
0FC0
1CE0
3870
0000
0000
0FC0
3FF0
7878
7038
0038
0078
0FF8
3FB8
7838
E038
E038
E038
E078
71F8
7FBC
1E1C
ENDCHAR
STARTCHAR atilde
ENCODING 227
SWIDTH 550 0
DWIDTH 16 0
BBX 14 22 1 0
BITMAP
0E60
3FE0
3380
0000
0000
0000
0FC0
3FF0
7878
7038
0038
0078
0FF8
3FB8
7838
E038
E038
E038
E078
71F8
7FBC
1E1C
ENDCHAR
STARTCHAR adieresis
ENCODING 228
SWIDTH 550 0
DWIDTH 16 0
BBX 14 22 1 0
BITMAP
1CE0
1CE0
1CE0
0000
0000
0000
0FC0
3FF0
7878
7038
0038
0078
0FF8
3FB8
7838
E038
E038
E038
E078
71F8
7FBC
1E1C
ENDCHAR
STARTCHAR aring
ENCODING 229
SWIDTH 550 0
DWIDTH 16 0
BBX 14 24 1 0
BITMAP
0700
0F80
18C0
18C0
0F80
0700
0000
0000
0FC0
3FF0
7878
7038
0038
0078
0FF8
3FB8
7838
E038
E038
E038
E078
71F8
7FBC
1E1C
ENDCHAR
STARTCHAR ae
ENCODING 230
SWIDTH 900 0
DWIDTH 26 0
BBX 24 16 1 0
BITMAP
0FC1F0
3FF7FC
787F1E
703C06
003C07
007803
0FFFFF
3FBFFF
783800
E03800
E03800
E03C00
E07C06
71FF1E
7FC7FC
1E01F0
ENDCHAR
STARTCHAR ccedilla
ENCODING 231
SWIDTH 525 0
DWIDTH 15 0
BBX 13 21 1 -6
BITMAP
07C0
1FF0
3C78
7018
7000
E000
E000
E000
E000
E000
7000
7018
3C78
1FF0
07C0
0300
0300
03C0
00E0
0CE0
07C0
ENDCHAR
STARTCHAR egrave
ENCODING 232
SWIDTH 550 0
DWIDTH 16 0
BBX 14 22 1 0
BITMAP
1C00
0E00
0700
0300
0180
0000
0000
07C0
1FF0
3C78
7018
701C
E00C
FFFC
FFFC
E000
E000
7000
7018
3C78
1FF0
07C0
ENDCHAR
STARTCHAR eacute
ENCODING 233
SWIDTH 550 0
DWIDTH 16 0
BBX 14 22 1 0
BITMAP
00E0
01C0
0380
0300
0600
0000
0000
07C0
1FF0
3C78
7018
701C
E00C
FFFC
FFFC
E000
E000
7000
7018
3C78
1FF0
07C0
ENDCHAR
STARTCHAR ecircumflex
ENCODING 234
SWIDTH 550 0
DWIDTH 16 0
BBX 14 22 1 0
BITMAP
0300
0780
0FC0
1CE0
3870
0000
0000
07C0
1FF0
3C78
7018
701C
E00C
FFFC
FFFC
E000
E000
7000
7018
3C78
1FF0
07C0
ENDCHAR
STARTCHAR edieresis
ENCODING 235
SWIDTH 550 0
DWIDTH 16 0
BBX 14 21 1 0
BITMAP
1CE0
1CE0
1CE0
0000
0000
0000
07C0
1FF0
3C78
7018
701C
E00C
FFFC
FFFC
E000
E000
7000
7018
3C78
1FF0
07C0
ENDCHAR
STARTCHAR igrave
ENCODING 236
SWIDTH 225 0
DWIDTH 7 0
BBX 6 23 0 0
BITMAP
E0
70
38
18
0C
00
00
38
38
38
38
38
38
38
38
38
38
38
38
38
38
38
38
ENDCHAR
STARTCHAR iacute
ENCODING 237
SWIDTH 225 0
DWIDTH 7 0
BBX 6 23 1 0
BITMAP
1C
38
70
60
C0
00
00
70
70
70
70
70
70
70
70
70
70
70
70
70
70
70
70
ENDCHAR
STARTCHAR icircumflex
ENCODING 238
SWIDTH 225 0
DWIDTH 7 0
BBX 7 23 0 0
BITMAP
10
38
7C
EE
C6
00
00
38
38
38
38
38
38
38
38
38
38
38
38
38
38
38
38
ENDCHAR
STARTCHAR idieresis
ENCODING 239
SWIDTH 225 0
DWIDTH 7 0
BBX 7 22 0 0
BITMAP
EE
EE
EE
00
00
00
38
38
38
38
38
38
38
38
38
38
38
38
38
38
38
38
ENDCHAR
STARTCHAR eth
ENCODING 240
SWIDTH 550 0
DWIDTH 17 0
BBX 15 21 1 0
BITMAP
6060
7DC0
0F00
3B80
61C0
0060
07F0
1FF8
3C7C
701C
701E
E00E
E00E
E00E
E00E
E00E
701C
701C
3C78
1FF0
07C0
ENDCHAR
STARTCHAR ntilde
ENCODING 241
SWIDTH 550 0
DWIDTH 17 0
BBX 13 21 2 0
BITMAP
0E60
3FE0
3380
0000
0000
0000
E3C0
EFF0
FC70
F038
E038
E038
E038
E038
E038
E038
E038
E038
E038
E038
E038
ENDCHAR
STARTCHAR ograve
ENCODING 242
SWIDTH 575 0
DWIDTH 17 0
BBX 15 22 1 0
BITMAP
0E00
0700
0380
0180
00C0
0000
0000
07C0
1FF0
3C78
701C
701C
E00E
E00E
E00E
E00E
E00E
701C
701C
3C78
1FF0
07C0
ENDCHAR
STARTCHAR oacute
ENCODING 243
SWIDTH 575 0
DWIDTH 17 0
BBX 15 22 1 0
BITMAP
0070
00E0
01C0
0180
0300
0000
0000
07C0
1FF0
3C78
701C
701C
E00E
E00E
E00E
E00E
E00E
701C
701C
3C78
1FF0
07C0
ENDCHAR
STARTCHAR ocircumflex
ENCODING 244
SWIDTH 575 0
DWIDTH 17 0
BBX 15 22 1 0
BITMAP
0180
03C0
07E0
0E70
1C38
0000
0000
07C0
1FF0
3C78
701C
701C
E00E
E00E
E00E
E00E
E00E
701C
701C
3C78
1FF0
07C0
ENDCHAR
STARTCHAR otilde
ENCODING 245
SWIDTH 575 0
DWIDTH 17 0
BBX 15 21 1 0
BITMAP
0730
1FF0
19C0
0000
0000
0000
07C0
1FF0
3C78
701C
701C
E00E
E00E
E00E
E00E
E00E
701C
701C
3C78
1FF0
07C0
ENDCHAR
STARTCHAR odieresis
ENCODING 246
SWIDTH 575 0
DWIDTH 17 0
BBX 15 21 1 0
BITMAP
0E70
0E70
0E70
0000
0000
0000
07C0
1FF0
3C78
701C
701C
E00E
E00E
E00E
E00E
E00E
701C
701C
3C78
1FF0
07C0
ENDCHAR
STARTCHAR divide
ENCODING 247
SWIDTH 575 0
DWIDTH 17 0
BBX 14 14 1 1
BITMAP
0300
0780
0780
0300
0000
0000
FFFC
FFFC
0000
0000
0300
0780
0780
0300
ENDCHAR
STARTCHAR oslash
ENCODING 248
SWIDTH 575 0
DWIDTH 17 0
BBX 15 15 1 0
BITMAP
07C2
1FF6
3C7C
701C
703C
E06E
E0CE
E18E
E30E
E60E
7C1C
781C
3C78
7FF0
47C0
ENDCHAR
STARTCHAR ugrave
ENCODING 249
SWIDTH 550 0
DWIDTH 17 0
BBX 13 22 2 0
BITMAP
3800
1C00
0E00
0600
0300
0000
0000
E038
E038
E038
E038
E038
E038
E038
E038
E038
E038
E038
E078
71F8
7FB8
1E38
ENDCHAR
STARTCHAR uacute
ENCODING 250
SWIDTH 550 0
DWIDTH 17 0
BBX 13 22 2 0
BITMAP
01C0
0380
0700
0600
0C00
0000
0000
E038
E038
E038
E038
E038
E038
E038
E038
E038
E038
E038
E078
71F8
7FB8
1E38
ENDCHAR
STARTCHAR ucircumflex
ENCODING 251
SWIDTH 550 0
DWIDTH 17 0
BBX 13 22 2 0
BITMAP
0300
0780
0FC0
1CE0
3870
0000
0000
E038
E038
E038
E038
E038
E038
E038
E038
E038
E038
E038
E078
71F8
7FB8
1E38
ENDCHAR
STARTCHAR udieresis
ENCODING 252
SWIDTH 550 0
DWIDTH 17 0
BBX 13 21 2 0
BITMAP
1CE0
1CE0
1CE0
0000
0000
0000
E038
E038
E038
E038
E038
E038
E038
E038
E038
E038
E038
E078
71F8
7FB8
1E38
ENDCHAR
STARTCHAR yacute
ENCODING 253
SWIDTH 500 0
DWIDTH 15 0
BBX 15 27 0 -6
BITMAP
0038
0070
00E0
00C0
0180
0000
E00E
E00E
701C
701C
3838
3838
3838
1C70
1C70
0EE0
0EE0
07C0
07C0
0380
0380
0700
0700
0E00
0E00
3C00
3800
ENDCHAR
STARTCHAR thorn
ENCODING 254
SWIDTH 550 0
DWIDTH 17 0
BBX 14 28 2 -6
BITMAP
E000
E000
E000
E000
E000
E000
E000
E780
FFE0
F8F0
F038
E038
E01C
E01C
E01C
E01C
E01C
E038
F038
F8F0
FFE0
E780
E000
E000
E000
E000
E000
E000
ENDCHAR
STARTCHAR ydieresis
ENCODING 255
SWIDTH 500 0
DWIDTH 15 0
BBX 15 27 0 -6
BITMAP
0E70
0E70
0E70
0000
0000
0000
E00E
E00E
701C
701C
3838
3838
3838
1C70
1C70
0EE0
0EE0
07C0
07C0
0380
0380
0700
0700
0E00
0E00
3C00
3800
ENDCHAR
ENDFONT
